<?xml version="1.0" encoding="UTF-8" standalone="no"?>
<svg width="30px" height="30px" viewBox="0 0 30 30" version="1.1" xmlns="http://www.w3.org/2000/svg" xmlns:xlink="http://www.w3.org/1999/xlink">
    <!-- Generator: Sketch 3.8.1 (29687) - http://www.bohemiancoding.com/sketch -->
    <title>helmet1</title>
    <desc>Created with Sketch.</desc>
    <defs></defs>
    <g id="Page-1" stroke="none" stroke-width="1" fill="none" fill-rule="evenodd">
        <g id="Artboard-10" transform="translate(-989.000000, -388.000000)" fill="#FFFFFF">
            <g id="Helmet1" transform="translate(989.000000, 388.000000)">
                <g id="noun_66005_cc" transform="translate(5.000000, 5.000000)">
                    <g id="Group">
                        <path d="M20.130227,3.28817137 L20.130227,3.28817137 C20.5467145,3.15396029 20.8243728,2.75132706 20.8243728,2.34869383 C20.8243728,1.81184953 20.3384707,1.34211076 19.7831541,1.34211076 C19.2278375,1.34211076 18.7419355,1.81184953 18.7419355,2.34869383 C18.7419355,2.8184326 19.0195938,3.15396029 19.4360812,3.28817137 L19.4360812,3.28817137 L19.4360812,6.84476489 C19.3666667,6.84476489 19.2972521,6.77765935 19.2278375,6.77765935 C18.2560335,2.88553814 14.7158901,0 10.4121864,0 C6.10848268,0 2.56833931,2.88553814 1.59653524,6.77765935 C0.694145759,6.97897597 0,7.78424242 0,8.72371996 C0,9.66319749 0.694145759,10.4684639 1.59653524,10.6697806 C1.94360812,12.0118913 2.56833931,13.219791 3.47072879,14.2934796 L3.47072879,16.1053292 C3.47072879,16.1053292 4.85902031,18.7895507 10.4121864,18.7895507 C15.9653524,18.7895507 17.353644,16.1053292 17.353644,16.1053292 L17.353644,14.2934796 C18.2560335,13.2868966 18.8807646,12.0118913 19.2278375,10.6697806 C20.130227,10.4684639 20.8243728,9.66319749 20.8243728,8.72371996 C20.8243728,8.11977011 20.5467145,7.58292581 20.130227,7.24739812 L20.130227,3.28817137 L20.130227,3.28817137 Z M18.1172043,10.6697806 C17.7701314,12.0118913 17.0759857,13.1526855 16.1041816,14.092163 C14.6464755,15.5684848 12.6334528,16.4408568 10.4121864,16.4408568 C8.19091995,16.4408568 6.10848268,15.5684848 4.72019116,14.092163 C3.7483871,13.1526855 3.05424134,11.9447858 2.70716846,10.6697806 C2.49892473,9.99872518 2.42951016,9.39477534 2.42951016,8.72371996 C2.42951016,8.05266458 2.49892473,7.44871473 2.70716846,6.77765935 C3.60955795,3.42238245 6.73321386,1.00658307 10.4121864,1.00658307 C14.1605735,1.00658307 17.2842294,3.48948798 18.1172043,6.77765935 C18.2560335,7.3816092 18.3948626,8.05266458 18.3948626,8.72371996 C18.3948626,9.39477534 18.325448,9.99872518 18.1172043,10.6697806 L18.1172043,10.6697806 Z M10.4121864,2.68422153 C6.94145759,2.68422153 4.16487455,5.36844305 4.16487455,8.72371996 C4.16487455,9.3276698 4.23428913,9.86451411 4.44253286,10.4013584 C5.83082437,9.26056426 8.19091995,7.9184535 11.453405,7.9184535 C8.3297491,9.12635319 6.38614098,10.9382027 5.34492234,12.2132079 C6.45555556,13.7566353 8.3297491,14.7632184 10.4121864,14.7632184 C13.8829152,14.7632184 16.6594982,12.0789969 16.6594982,8.72371996 C16.6594982,5.36844305 13.8829152,2.68422153 10.4121864,2.68422153 L10.4121864,2.68422153 Z" id="Shape"></path>
                    </g>
                </g>
            </g>
        </g>
    </g>
</svg>