<?xml version="1.0" encoding="UTF-8" standalone="no"?>
<svg width="353px" height="62px" viewBox="0 0 353 62" version="1.1" xmlns="http://www.w3.org/2000/svg" xmlns:xlink="http://www.w3.org/1999/xlink">
    <!-- Generator: Sketch 3.8.1 (29687) - http://www.bohemiancoding.com/sketch -->
    <title>space</title>
    <desc>Created with Sketch.</desc>
    <defs>
        <path d="M32.9,18.3 C35.100011,18.3 37.1749903,18.7166625 39.125,19.55 C41.0750097,20.3833375 42.7749928,21.5166595 44.225,22.95 C45.6750073,24.3833405 46.8166625,26.0749903 47.65,28.025 C48.4833375,29.9750098 48.9,32.049989 48.9,34.25 C48.9,36.450011 48.4833375,38.516657 47.65,40.45 C46.8166625,42.383343 45.6750073,44.0749928 44.225,45.525 C42.7749928,46.9750073 41.0750097,48.1166625 39.125,48.95 C37.1749903,49.7833375 35.100011,50.2 32.9,50.2 C30.699989,50.2 28.6416763,49.7833375 26.725,48.95 C24.8083237,48.1166625 23.1250072,46.9750073 21.675,45.525 C20.2249927,44.0749928 19.0833375,42.383343 18.25,40.45 C17.4166625,38.516657 17,36.450011 17,34.25 L17,11.6 C17,10.799996 17.2916638,10.100003 17.875,9.5 C18.4583362,8.899997 19.183329,8.6 20.05,8.6 C20.850004,8.6 21.5583303,8.899997 22.175,9.5 C22.7916698,10.100003 23.1,10.799996 23.1,11.6 L23.1,21.75 C24.43334,20.6499945 25.9249918,19.800003 27.575,19.2 C29.2250083,18.599997 30.9999905,18.3 32.9,18.3 L32.9,18.3 Z M32.95,44.55 C34.350007,44.55 35.683327,44.2750028 36.95,43.725 C38.216673,43.1749973 39.316662,42.433338 40.25,41.5 C41.183338,40.566662 41.9249973,39.4750063 42.475,38.225 C43.0250027,36.9749938 43.3,35.6333405 43.3,34.2 C43.3,32.799993 43.0250027,31.4750063 42.475,30.225 C41.9249973,28.9749938 41.183338,27.883338 40.25,26.95 C39.316662,26.016662 38.216673,25.2750028 36.95,24.725 C35.683327,24.1749973 34.350007,23.9 32.95,23.9 C31.549993,23.9 30.216673,24.1749973 28.95,24.725 C27.683327,25.2750028 26.583338,26.016662 25.65,26.95 C24.716662,27.883338 23.9750028,28.9749938 23.425,30.225 C22.8749972,31.4750063 22.6,32.799993 22.6,34.2 C22.6,35.6333405 22.8749972,36.9749938 23.425,38.225 C23.9750028,39.4750063 24.716662,40.566662 25.65,41.5 C26.583338,42.433338 27.683327,43.1749973 28.95,43.725 C30.216673,44.2750028 31.549993,44.55 32.95,44.55 L32.95,44.55 Z M61.05,31 L80.7,31 C80.366665,29.9666615 79.8833365,29.0083378 79.25,28.125 C78.6166635,27.2416623 77.8750043,26.4750033 77.025,25.825 C76.1749957,25.1749968 75.2250053,24.6666685 74.175,24.3 C73.1249948,23.9333315 72.033339,23.75 70.9,23.75 C69.7333275,23.75 68.6333385,23.9333315 67.6,24.3 C66.5666615,24.6666685 65.616671,25.1749968 64.75,25.825 C63.883329,26.4750033 63.1333365,27.2416623 62.5,28.125 C61.8666635,29.0083378 61.383335,29.9666615 61.05,31 L61.05,31 Z M78.2,41.25 C78.733336,40.716664 79.399996,40.45 80.2,40.45 C80.933337,40.45 81.599997,40.716664 82.2,41.25 C82.7666695,41.8833365 83.05,42.5499965 83.05,43.25 C83.05,44.0166705 82.7666695,44.6833305 82.2,45.25 C80.6333255,46.8166745 78.8666765,47.9916628 76.9,48.775 C74.9333235,49.5583373 72.916677,49.95 70.85,49.95 C68.6833225,49.95 66.6416762,49.5250043 64.725,48.675 C62.8083237,47.8249958 61.116674,46.6750073 59.65,45.225 C58.183326,43.7749928 57.0250043,42.0750098 56.175,40.125 C55.3249958,38.1749903 54.9,36.1166775 54.9,33.95 C54.9,31.7833225 55.3166625,29.733343 56.15,27.8 C56.9833375,25.866657 58.1166595,24.1833405 59.55,22.75 C60.9833405,21.3166595 62.6749903,20.1833375 64.625,19.35 C66.5750097,18.5166625 68.6666555,18.1 70.9,18.1 C73.100011,18.1 75.166657,18.5249958 77.1,19.375 C79.033343,20.2250043 80.7249928,21.3749928 82.175,22.825 C83.6250073,24.2750073 84.7749957,25.966657 85.625,27.9 C86.4750043,29.833343 86.9,31.899989 86.9,34.1 C86.9,34.9333375 86.600003,35.649997 86,36.25 C85.399997,36.850003 84.6833375,37.15 83.85,37.15 L61.05,37.15 C61.3500015,38.216672 61.83333,39.183329 62.5,40.05 C63.16667,40.916671 63.9416623,41.6666635 64.825,42.3 C65.7083377,42.9333365 66.6666615,43.416665 67.7,43.75 C68.7333385,44.083335 69.783328,44.25 70.85,44.25 C72.18334,44.25 73.4916602,44.0000025 74.775,43.5 C76.0583398,42.9999975 77.199995,42.250005 78.2,41.25 L78.2,41.25 Z M97.1,11.4 L97.1,50 L91.2,50 L91.2,11.4 C91.2,10.533329 91.499997,9.833336 92.1,9.3 C92.700003,8.766664 93.3833295,8.5 94.15,8.5 C95.0500045,8.5 95.766664,8.766664 96.3,9.3 C96.833336,9.833336 97.1,10.533329 97.1,11.4 L97.1,11.4 Z M106.3,18.2 C107.133337,18.2 107.849997,18.499997 108.45,19.1 C109.050003,19.700003 109.35,20.4166625 109.35,21.25 L109.35,50 L103.2,50 L103.2,21.25 C103.2,20.4166625 103.499997,19.700003 104.1,19.1 C104.700003,18.499997 105.433329,18.2 106.3,18.2 L106.3,18.2 Z M106.3,14.65 C105.433329,14.65 104.700003,14.350003 104.1,13.75 C103.499997,13.149997 103.2,12.416671 103.2,11.55 C103.2,10.7166625 103.499997,10.000003 104.1,9.4 C104.700003,8.799997 105.433329,8.5 106.3,8.5 C107.133337,8.5 107.849997,8.799997 108.45,9.4 C109.050003,10.000003 109.35,10.7166625 109.35,11.55 C109.35,12.416671 109.050003,13.149997 108.45,13.75 C107.849997,14.350003 107.133337,14.65 106.3,14.65 L106.3,14.65 Z M121.6,31 L141.25,31 C140.916665,29.9666615 140.433336,29.0083378 139.8,28.125 C139.166664,27.2416623 138.425004,26.4750033 137.575,25.825 C136.724996,25.1749968 135.775005,24.6666685 134.725,24.3 C133.674995,23.9333315 132.583339,23.75 131.45,23.75 C130.283327,23.75 129.183338,23.9333315 128.15,24.3 C127.116662,24.6666685 126.166671,25.1749968 125.3,25.825 C124.433329,26.4750033 123.683337,27.2416623 123.05,28.125 C122.416664,29.0083378 121.933335,29.9666615 121.6,31 L121.6,31 Z M138.75,41.25 C139.283336,40.716664 139.949996,40.45 140.75,40.45 C141.483337,40.45 142.149997,40.716664 142.75,41.25 C143.316669,41.8833365 143.6,42.5499965 143.6,43.25 C143.6,44.0166705 143.316669,44.6833305 142.75,45.25 C141.183325,46.8166745 139.416676,47.9916628 137.45,48.775 C135.483323,49.5583373 133.466677,49.95 131.4,49.95 C129.233322,49.95 127.191676,49.5250043 125.275,48.675 C123.358324,47.8249958 121.666674,46.6750073 120.2,45.225 C118.733326,43.7749928 117.575004,42.0750098 116.725,40.125 C115.874996,38.1749903 115.45,36.1166775 115.45,33.95 C115.45,31.7833225 115.866662,29.733343 116.7,27.8 C117.533337,25.866657 118.666659,24.1833405 120.1,22.75 C121.53334,21.3166595 123.22499,20.1833375 125.175,19.35 C127.12501,18.5166625 129.216656,18.1 131.45,18.1 C133.650011,18.1 135.716657,18.5249958 137.65,19.375 C139.583343,20.2250043 141.274993,21.3749928 142.725,22.825 C144.175007,24.2750073 145.324996,25.966657 146.175,27.9 C147.025004,29.833343 147.45,31.899989 147.45,34.1 C147.45,34.9333375 147.150003,35.649997 146.55,36.25 C145.949997,36.850003 145.233338,37.15 144.4,37.15 L121.6,37.15 C121.900002,38.216672 122.38333,39.183329 123.05,40.05 C123.71667,40.916671 124.491662,41.6666635 125.375,42.3 C126.258338,42.9333365 127.216661,43.416665 128.25,43.75 C129.283339,44.083335 130.333328,44.25 131.4,44.25 C132.73334,44.25 134.04166,44.0000025 135.325,43.5 C136.60834,42.9999975 137.749995,42.250005 138.75,41.25 L138.75,41.25 Z M167.55,8.4 C168.416671,8.4 169.141664,8.65833075 169.725,9.175 C170.308336,9.69166925 170.6,10.383329 170.6,11.25 C170.6,12.0833375 170.308336,12.7583308 169.725,13.275 C169.141664,13.7916693 168.416671,14.05 167.55,14.05 C166.249993,14.05 165.016672,14.316664 163.85,14.85 C162.683327,15.383336 161.658338,16.0916623 160.775,16.975 C159.891662,17.8583378 159.183336,18.8833275 158.65,20.05 C158.116664,21.2166725 157.85,22.433327 157.85,23.7 L157.85,25.2 L163.85,25.2 C164.683337,25.2 165.391664,25.499997 165.975,26.1 C166.558336,26.700003 166.85,27.4166625 166.85,28.25 C166.85,29.116671 166.566669,29.8333305 166,30.4 C165.433331,30.9666695 164.716671,31.25 163.85,31.25 L157.85,31.25 L157.8,50 L151.75,50 L151.8,24.15 C151.8,21.9833225 152.208329,19.9416763 153.025,18.025 C153.841671,16.1083238 154.966659,14.4416738 156.4,13.025 C157.833341,11.6083263 159.508324,10.4833375 161.425,9.65 C163.341676,8.8166625 165.383323,8.4 167.55,8.4 L167.55,8.4 Z" id="path-1"></path>
        <filter x="-50%" y="-50%" width="200%" height="200%" filterUnits="objectBoundingBox" id="filter-2">
            <feOffset dx="1" dy="1" in="SourceAlpha" result="shadowOffsetOuter1"></feOffset>
            <feGaussianBlur stdDeviation="0.5" in="shadowOffsetOuter1" result="shadowBlurOuter1"></feGaussianBlur>
            <feColorMatrix values="0 0 0 0 0   0 0 0 0 0   0 0 0 0 0  0 0 0 0.5 0" type="matrix" in="shadowBlurOuter1"></feColorMatrix>
        </filter>
        <path d="M185.8,30.45 L192.5,30.45 C193.83334,30.45 195.074994,30.7083308 196.225,31.225 C197.375006,31.7416693 198.374996,32.4499955 199.225,33.35 C200.075004,34.2500045 200.749998,35.299994 201.25,36.5 C201.750002,37.700006 202,38.96666 202,40.3 C202,41.6000065 201.733336,42.8333275 201.2,44 C200.666664,45.1666725 199.958338,46.1999955 199.075,47.1 C198.191662,48.0000045 197.158339,48.7083308 195.975,49.225 C194.791661,49.7416693 193.550006,50 192.25,50 L178.55,50 C178.116665,50 177.9,49.766669 177.9,49.3 L177.9,44.8 C177.9,44.333331 178.116665,44.1 178.55,44.1 L192.25,44.1 C193.316672,44.1 194.224996,43.7250038 194.975,42.975 C195.725004,42.2249963 196.1,41.3333385 196.1,40.3 C196.1,39.166661 195.725004,38.233337 194.975,37.5 C194.224996,36.766663 193.316672,36.4 192.25,36.4 L185.8,36.4 C184.599994,36.4 183.458339,36.1916688 182.375,35.775 C181.291661,35.3583313 180.333337,34.7583373 179.5,33.975 C178.666663,33.1916628 178.000002,32.2416723 177.5,31.125 C176.999998,30.0083278 176.75,28.7333405 176.75,27.3 C176.75,26.0666605 176.983331,24.9000055 177.45,23.8 C177.916669,22.6999945 178.566663,21.7333375 179.4,20.9 C180.233338,20.0666625 181.191661,19.4083358 182.275,18.925 C183.358339,18.4416643 184.533327,18.2 185.8,18.2 L197.7,18.2 C198.46667,18.2 199.13333,18.4749973 199.7,19.025 C200.26667,19.5750028 200.55,20.2666625 200.55,21.1 C200.55,21.9333375 200.26667,22.6249973 199.7,23.175 C199.13333,23.7250028 198.46667,24 197.7,24 L185.8,24 C184.899995,24 184.133337,24.3249968 183.5,24.975 C182.866663,25.6250033 182.55,26.3999955 182.55,27.3 C182.55,28.166671 182.866663,28.9083303 183.5,29.525 C184.133337,30.1416698 184.899995,30.45 185.8,30.45 L185.8,30.45 Z M223.4,44.45 C224.800007,44.45 226.133327,44.1750028 227.4,43.625 C228.666673,43.0749973 229.766662,42.333338 230.7,41.4 C231.633338,40.466662 232.374997,39.3750063 232.925,38.125 C233.475003,36.8749938 233.75,35.5333405 233.75,34.1 C233.75,32.699993 233.475003,31.3750063 232.925,30.125 C232.374997,28.8749938 231.633338,27.783338 230.7,26.85 C229.766662,25.916662 228.666673,25.1750028 227.4,24.625 C226.133327,24.0749973 224.800007,23.8 223.4,23.8 C221.999993,23.8 220.666673,24.0749973 219.4,24.625 C218.133327,25.1750028 217.033338,25.916662 216.1,26.85 C215.166662,27.783338 214.425003,28.8749938 213.875,30.125 C213.324997,31.3750063 213.05,32.699993 213.05,34.1 C213.05,35.5333405 213.324997,36.8749938 213.875,38.125 C214.425003,39.3750063 215.166662,40.466662 216.1,41.4 C217.033338,42.333338 218.133327,43.0749973 219.4,43.625 C220.666673,44.1750028 221.999993,44.45 223.4,44.45 L223.4,44.45 Z M223.45,18.2 C225.650011,18.2 227.716657,18.6166625 229.65,19.45 C231.583343,20.2833375 233.26666,21.4249928 234.7,22.875 C236.133341,24.3250073 237.266662,26.016657 238.1,27.95 C238.933337,29.883343 239.35,31.9333225 239.35,34.1 C239.35,36.300011 238.933337,38.3583238 238.1,40.275 C237.266662,42.1916763 236.133341,43.8749928 234.7,45.325 C233.26666,46.7750073 231.583343,47.9166625 229.65,48.75 C227.716657,49.5833375 225.650011,50 223.45,50 C221.549991,50 219.775008,49.700003 218.125,49.1 C216.474992,48.499997 214.98334,47.6500055 213.65,46.55 L213.65,59.8 L207.6,59.8 L207.6,34.1 C207.6,31.9333225 208.016662,29.883343 208.85,27.95 C209.683337,26.016657 210.808326,24.3250073 212.225,22.875 C213.641674,21.4249928 215.316657,20.2833375 217.25,19.45 C219.183343,18.6166625 221.249989,18.2 223.45,18.2 L223.45,18.2 Z M261.3,44.55 C262.700007,44.55 264.033327,44.2750028 265.3,43.725 C266.566673,43.1749973 267.666662,42.433338 268.6,41.5 C269.533338,40.566662 270.274997,39.4750063 270.825,38.225 C271.375003,36.9749938 271.65,35.6333405 271.65,34.2 C271.65,32.799993 271.375003,31.4750063 270.825,30.225 C270.274997,28.9749938 269.533338,27.883338 268.6,26.95 C267.666662,26.016662 266.566673,25.2750028 265.3,24.725 C264.033327,24.1749973 262.700007,23.9 261.3,23.9 C259.899993,23.9 258.566673,24.1749973 257.3,24.725 C256.033327,25.2750028 254.933338,26.016662 254,26.95 C253.066662,27.883338 252.325003,28.9749938 251.775,30.225 C251.224997,31.4750063 250.95,32.799993 250.95,34.2 C250.95,35.6333405 251.224997,36.9749938 251.775,38.225 C252.325003,39.4750063 253.066662,40.566662 254,41.5 C254.933338,42.433338 256.033327,43.1749973 257.3,43.725 C258.566673,44.2750028 259.899993,44.55 261.3,44.55 L261.3,44.55 Z M261.35,18.1 C263.550011,18.1 265.62499,18.5166625 267.575,19.35 C269.52501,20.1833375 271.224993,21.3249928 272.675,22.775 C274.125007,24.2250073 275.266662,25.916657 276.1,27.85 C276.933337,29.783343 277.35,31.8666555 277.35,34.1 L277.35,50.1 L271.25,50.1 L271.25,46.65 C269.91666,47.7500055 268.408342,48.599997 266.725,49.2 C265.041658,49.800003 263.250009,50.1 261.35,50.1 C259.149989,50.1 257.07501,49.6833375 255.125,48.85 C253.17499,48.0166625 251.475007,46.8750073 250.025,45.425 C248.574993,43.9749928 247.433337,42.2750098 246.6,40.325 C245.766662,38.3749903 245.35,36.300011 245.35,34.1 C245.35,31.8666555 245.766662,29.783343 246.6,27.85 C247.433337,25.916657 248.574993,24.2250073 250.025,22.775 C251.475007,21.3249928 253.17499,20.1833375 255.125,19.35 C257.07501,18.5166625 259.149989,18.1 261.35,18.1 L261.35,18.1 Z M306.75,41.25 C307.283336,40.716664 307.949996,40.45 308.75,40.45 C309.483337,40.45 310.149997,40.716664 310.75,41.25 C311.316669,41.8833365 311.6,42.5499965 311.6,43.25 C311.6,44.0166705 311.316669,44.6833305 310.75,45.25 C309.149992,46.850008 307.391676,48.0333295 305.475,48.8 C303.558324,49.5666705 301.566677,49.95 299.5,49.95 C297.466656,49.95 295.458343,49.5666705 293.475,48.8 C291.491657,48.0333295 289.700008,46.850008 288.1,45.25 C286.499992,43.649992 285.31667,41.883343 284.55,39.95 C283.783329,38.016657 283.4,36.0333435 283.4,34 C283.4,32.066657 283.73333,30.1833425 284.4,28.35 C285.133337,26.2499895 286.366658,24.333342 288.1,22.6 C289.666674,21.0333255 291.42499,19.8583373 293.375,19.075 C295.32501,18.2916628 297.333323,17.9 299.4,17.9 C301.466677,17.9 303.47499,18.2916628 305.425,19.075 C307.37501,19.8583373 309.149992,21.0333255 310.75,22.6 C311.283336,23.2333365 311.55,23.916663 311.55,24.65 C311.55,25.450004 311.26667,26.1333305 310.7,26.7 C310.166664,27.2666695 309.516671,27.55 308.75,27.55 C307.983329,27.55 307.300003,27.250003 306.7,26.65 C305.699995,25.649995 304.55834,24.8916693 303.275,24.375 C301.99166,23.8583308 300.666674,23.6 299.3,23.6 C298.066661,23.6 296.866672,23.8166645 295.7,24.25 C294.533327,24.6833355 293.466671,25.333329 292.5,26.2 L292.15,26.65 C291.149995,27.650005 290.391669,28.7916603 289.875,30.075 C289.358331,31.3583398 289.1,32.66666 289.1,34 C289.1,35.33334 289.349997,36.6249938 289.85,37.875 C290.350002,39.1250063 291.099995,40.249995 292.1,41.25 C293.100005,42.250005 294.233327,42.9999975 295.5,43.5 C296.766673,44.0000025 298.06666,44.25 299.4,44.25 C300.73334,44.25 302.04166,44.0000025 303.325,43.5 C304.60834,42.9999975 305.749995,42.250005 306.75,41.25 L306.75,41.25 Z M324.6,31 L344.25,31 C343.916665,29.9666615 343.433336,29.0083378 342.8,28.125 C342.166664,27.2416623 341.425004,26.4750033 340.575,25.825 C339.724996,25.1749968 338.775005,24.6666685 337.725,24.3 C336.674995,23.9333315 335.583339,23.75 334.45,23.75 C333.283327,23.75 332.183338,23.9333315 331.15,24.3 C330.116661,24.6666685 329.166671,25.1749968 328.3,25.825 C327.433329,26.4750033 326.683336,27.2416623 326.05,28.125 C325.416664,29.0083378 324.933335,29.9666615 324.6,31 L324.6,31 Z M341.75,41.25 C342.283336,40.716664 342.949996,40.45 343.75,40.45 C344.483337,40.45 345.149997,40.716664 345.75,41.25 C346.316669,41.8833365 346.6,42.5499965 346.6,43.25 C346.6,44.0166705 346.316669,44.6833305 345.75,45.25 C344.183326,46.8166745 342.416676,47.9916628 340.45,48.775 C338.483323,49.5583373 336.466677,49.95 334.4,49.95 C332.233322,49.95 330.191676,49.5250043 328.275,48.675 C326.358324,47.8249958 324.666674,46.6750073 323.2,45.225 C321.733326,43.7749928 320.575004,42.0750098 319.725,40.125 C318.874996,38.1749903 318.45,36.1166775 318.45,33.95 C318.45,31.7833225 318.866662,29.733343 319.7,27.8 C320.533338,25.866657 321.666659,24.1833405 323.1,22.75 C324.533341,21.3166595 326.22499,20.1833375 328.175,19.35 C330.12501,18.5166625 332.216656,18.1 334.45,18.1 C336.650011,18.1 338.716657,18.5249958 340.65,19.375 C342.583343,20.2250043 344.274993,21.3749928 345.725,22.825 C347.175007,24.2750073 348.324996,25.966657 349.175,27.9 C350.025004,29.833343 350.45,31.899989 350.45,34.1 C350.45,34.9333375 350.150003,35.649997 349.55,36.25 C348.949997,36.850003 348.233338,37.15 347.4,37.15 L324.6,37.15 C324.900001,38.216672 325.38333,39.183329 326.05,40.05 C326.71667,40.916671 327.491662,41.6666635 328.375,42.3 C329.258338,42.9333365 330.216661,43.416665 331.25,43.75 C332.283339,44.083335 333.333328,44.25 334.4,44.25 C335.73334,44.25 337.04166,44.0000025 338.325,43.5 C339.60834,42.9999975 340.749995,42.250005 341.75,41.25 L341.75,41.25 Z" id="path-3"></path>
        <filter x="-50%" y="-50%" width="200%" height="200%" filterUnits="objectBoundingBox" id="filter-4">
            <feOffset dx="1" dy="1" in="SourceAlpha" result="shadowOffsetOuter1"></feOffset>
            <feGaussianBlur stdDeviation="0.5" in="shadowOffsetOuter1" result="shadowBlurOuter1"></feGaussianBlur>
            <feColorMatrix values="0 0 0 0 0   0 0 0 0 0   0 0 0 0 0  0 0 0 0.5 0" type="matrix" in="shadowBlurOuter1"></feColorMatrix>
        </filter>
    </defs>
    <g id="Page-1" stroke="none" stroke-width="1" fill="none" fill-rule="evenodd">
        <g id="Artboard-10" transform="translate(-38.000000, -342.000000)">
            <g id="Group-2" transform="translate(38.000000, 342.000000)">
                <g id="belief">
                    <use fill="black" fill-opacity="1" filter="url(#filter-2)" xlink:href="#path-1"></use>
                    <use fill="#FFFFFF" fill-rule="evenodd" xlink:href="#path-1"></use>
                    <use fill="black" fill-opacity="1" xlink:href="#path-1"></use>
                </g>
                <g id="space">
                    <use fill="black" fill-opacity="1" filter="url(#filter-4)" xlink:href="#path-3"></use>
                    <use fill="#C0DDDD" fill-rule="evenodd" xlink:href="#path-3"></use>
                    <use fill="black" fill-opacity="1" xlink:href="#path-3"></use>
                </g>
            </g>
        </g>
    </g>
</svg>