<?xml version="1.0" encoding="UTF-8" standalone="no"?>
<svg width="30px" height="30px" viewBox="0 0 30 30" version="1.1" xmlns="http://www.w3.org/2000/svg" xmlns:xlink="http://www.w3.org/1999/xlink">
    <!-- Generator: Sketch 3.8.1 (29687) - http://www.bohemiancoding.com/sketch -->
    <title>telescope1</title>
    <desc>Created with Sketch.</desc>
    <defs></defs>
    <g id="Page-1" stroke="none" stroke-width="1" fill="none" fill-rule="evenodd">
        <g id="Artboard-10" transform="translate(-878.000000, -387.000000)" fill="#FFFFFF">
            <g id="Telescope1" transform="translate(878.000000, 387.000000)">
                <g id="noun_301752_cc" transform="translate(3.000000, 2.000000)">
                    <g id="Group">
                        <g>
                            <path d="M6.76923077,1.68571429 L2.11538462,0.314285714 C1.77692308,0.2 1.41025641,0.4 1.32564103,0.771428571 L0.225641026,4.57142857 C0.112820513,4.91428571 0.31025641,5.28571429 0.676923077,5.37142857 L5.33076923,6.74285714 C5.66923077,6.85714286 6.03589744,6.65714286 6.12051282,6.28571429 L7.22051282,2.45714286 C7.30512821,2.14285714 7.10769231,1.77142857 6.76923077,1.68571429 L6.76923077,1.68571429 Z" id="Shape"></path>
                            <polygon id="Shape" points="9.33589744 3.11428571 7.84102564 2.48571429 6.62820513 6.65714286 8.26410256 6.94285714"></polygon>
                            <polygon id="Shape" points="14.8076923 8.74285714 15.8794872 8.34285714 17.9666667 8.97142857 18.6153846 6.68571429 16.5282051 6.08571429 15.8512821 5.14285714 15.3435897 5 15.9076923 3.11428571 15.2871795 2.94285714 14.7230769 4.82857143 9.9 3.4 8.88461538 7"></polygon>
                            <polygon id="Shape" points="21.5205128 6.02857143 21.6615385 6.05714286 21.8025641 5.51428571 20.9564103 5.25714286 20.1948718 5.05714286 20.0820513 5 19.9128205 5.54285714 20.0538462 5.6 19.6589744 7 19.0384615 6.82857143 18.1358974 10.0285714 21.6615385 7.6 21.125641 7.42857143"></polygon>
                            <ellipse id="Oval" cx="16.8384615" cy="10.0285714" rx="0.987179487" ry="1"></ellipse>
                            <path d="M9.42051282,7.65714286 L9.05384615,8.94285714 L11.1410256,9.57142857 L12.3538462,12.1428571 L13.8769231,12.6 L14.9769231,12.2571429 L15.2307692,11.3714286 L14.525641,10.4 L13.8769231,10.2 L14.1871795,9.08571429 L9.42051282,7.65714286 L9.42051282,7.65714286 Z M13.8769231,11.3714286 C13.8205128,11.5428571 13.6230769,11.6571429 13.4538462,11.6 C13.2846154,11.5428571 13.1717949,11.3428571 13.2282051,11.1714286 C13.2846154,11 13.4820513,10.8857143 13.6512821,10.9428571 C13.8205128,11 13.9333333,11.2 13.8769231,11.3714286 L13.8769231,11.3714286 Z" id="Shape"></path>
                            <rect id="Rectangle-path" transform="translate(14.089868, 3.057617) rotate(16.200388) translate(-14.089868, -3.057617) " x="13.2578092" y="2.60047038" width="1.66411678" height="0.914293527"></rect>
                            <rect id="Rectangle-path" transform="translate(16.399468, 3.731380) rotate(106.200388) translate(-16.399468, -3.731380) " x="15.9481826" y="3.24566156" width="0.902571815" height="0.971436872"></rect>
                            <path d="M15.4282051,12.8857143 L14.4692308,13.2571429 L16.3025641,17.9428571 L14.1307692,18.9428571 L14.1307692,13.3428571 L13.1153846,13.3428571 L13.1153846,18.9714286 L10.8871795,17.9428571 L12.8615385,13.2857143 L11.9307692,12.8857143 L7.72820513,22.6857143 C7.61538462,22.9428571 7.72820513,23.2571429 7.98205128,23.3714286 L7.98205128,23.3714286 C8.23589744,23.4857143 8.54615385,23.3714286 8.65897436,23.1142857 L10.5205128,18.7428571 L13.0871795,19.9142857 L13.0871795,25.4857143 C13.0871795,25.7714286 13.3128205,26 13.5948718,26 L13.5948718,26 C13.8769231,26 14.1025641,25.7714286 14.1025641,25.4857143 L14.1025641,19.9142857 L16.6128205,18.7714286 L18.3615385,23.2 C18.474359,23.4571429 18.7564103,23.6 19.0384615,23.4857143 C19.2923077,23.3714286 19.4333333,23.0857143 19.3205128,22.8 L15.4282051,12.8857143 L15.4282051,12.8857143 Z" id="Shape"></path>
                        </g>
                    </g>
                </g>
            </g>
        </g>
    </g>
</svg>